<svg xmlns="http://www.w3.org/2000/svg" xml:space="preserve" width="239px" height="60px" version="1.1" style="shape-rendering:geometricPrecision; text-rendering:geometricPrecision; image-rendering:optimizeQuality; fill-rule:evenodd; clip-rule:evenodd" viewBox="0 0 29597 7432" xmlns:xlink="http://www.w3.org/1999/xlink">
  <metadata id="CorelCorpID_0Corel-Layer"/>
  <rect fill="none" width="29597" height="7432"/>
  <path fill="none" stroke="white" stroke-width="226.048" d="M2884 1384l3322 0c370,0 673,302 673,672l0 3321c0,369 -303,672 -673,672l-3322 0c-369,0 -671,-303 -671,-672l0 -3321c0,-370 302,-672 671,-672z"/>
  <path fill="none"  stroke="white" stroke-width="135.63" d="M3116 1709l2859 0c318,0 579,260 579,578l0 2858c0,319 -261,579 -579,579l-2859 0c-318,0 -578,-260 -578,-579l0 -2858c0,-318 260,-578 578,-578z"/>
  <path fill="#FFF" d="M10268 2659l0 2443 -380 0 0 -2443 -803 0 0 -329 1988 0 0 329 -805 0 0 0zm2782 0l-1188 0 0 796 1007 0 0 328 -1007 0 0 991 1343 0 0 328 -1723 0 0 -2772 1568 0 0 329 0 0zm987 2115l1344 0 0 328 -1724 0 0 -2772 380 0 0 2444zm3364 -2115l-1188 0 0 796 1007 0 0 328 -1007 0 0 991 1344 0 0 328 -1724 0 0 -2772 1568 0 0 329 0 0zm988 1433l0 1010 -380 0 0 -2772 948 0c203,0 377,34 524,101 146,68 256,166 332,296 75,130 113,283 113,459 0,604 -333,906 -999,906l-538 0zm0 -328l507 0c415,0 621,-185 621,-555 0,-366 -223,-550 -670,-550l-458 0 0 1105zm1853 -48c0,-399 80,-719 238,-958 215,-327 554,-492 1017,-492 108,0 220,11 338,32 117,22 236,69 358,143 121,73 227,179 319,317 161,248 241,568 241,958 0,391 -80,710 -241,959 -92,137 -197,243 -317,315 -121,72 -239,120 -358,142 -119,22 -232,33 -340,33 -461,0 -800,-163 -1017,-490 -158,-240 -238,-559 -238,-959l0 0zm409 -12c0,249 34,458 104,627 69,170 168,297 296,381 129,83 276,125 442,125 233,0 413,-65 540,-194 125,-130 209,-278 250,-448 42,-169 62,-329 62,-479 0,-109 -10,-224 -30,-343 -20,-118 -58,-237 -116,-356 -57,-119 -144,-219 -261,-300 -118,-81 -266,-121 -445,-121 -170,0 -318,41 -445,123 -126,83 -224,206 -293,372 -70,166 -104,370 -104,613l0 0zm2959 -1045l0 930 368 0c218,0 387,-35 505,-107 118,-71 177,-195 177,-370 0,-126 -29,-221 -86,-286 -56,-65 -134,-109 -230,-132 -97,-23 -217,-35 -359,-35l-375 0zm0 1259l0 1184 -380 0 0 -2772 764 0c197,0 371,16 521,48 149,31 279,105 388,223 110,117 164,292 164,525 0,178 -45,331 -137,459 -92,128 -263,221 -516,278l765 1239 -436 2 -733 -1186 -400 0 0 0zm2970 -1259l0 2443 -380 0 0 -2443 -803 0 0 -329 1987 0 0 329 -804 0z"/>
  <polygon fill="#FFF" fill-rule="nonzero" points="3483,5713 4537,5713 5989,4249 6547,4799 6547,3938 5189,2580 4754,3012 5470,3727 "/>
  <polygon fill="#FFF" fill-rule="nonzero" points="2550,3452 3936,4838 4371,4406 3655,3691 5627,1720 4573,1720 3136,3169 2550,2592 "/>
</svg>
