<svg xmlns="http://www.w3.org/2000/svg" xmlns:xlink="http://www.w3.org/1999/xlink" id="Layer_1" width="100px" height="100px" style="enable-background:new 0 0 512 512;" version="1.1" viewBox="0 -226 512 1024" xml:space="preserve"><style type="text/css">
	.st0{fill:#CCC;}
</style><g id="XMLID_17_"><path class="st0" d="M472.8,95.2h-22.1v-4c0-9.6-7.8-17.4-17.4-17.4h-67.7c-9.6,0-17.4,7.8-17.4,17.4v4H185v-5.8   c0-4.1-3.3-7.4-7.4-7.4h-35.9c-4.1,0-7.4,3.3-7.4,7.4v5.8H117v-5.8c0-4.1-3.3-7.4-7.4-7.4H73.7c-4.1,0-7.4,3.3-7.4,7.4v5.8H39.2   C20.8,95.2,6,110.1,6,128.4v276.7c0,18.3,14.8,33.2,33.2,33.2h433.7c18.3,0,33.2-14.8,33.2-33.2V128.4   C506,110.1,491.2,95.2,472.8,95.2z M256,380.1c-62.6,0-113.3-50.7-113.3-113.3S193.4,153.4,256,153.4s113.3,50.7,113.3,113.3   S318.6,380.1,256,380.1z M456,149c0,6.4-5.2,11.5-11.5,11.5h-59.1c-6.4,0-11.5-5.2-11.5-11.5V139c0-6.4,5.2-11.5,11.5-11.5h59.1   c6.4,0,11.5,5.2,11.5,11.5V149z" id="XMLID_21_"/><path class="st0" d="M256,171.4c-52.6,0-95.3,42.7-95.3,95.3s42.7,95.3,95.3,95.3s95.3-42.7,95.3-95.3   S308.6,171.4,256,171.4z M256,235.7c17.1,0,31,13.9,31,31s-13.9,31-31,31c-17.1,0-31-13.9-31-31S238.9,235.7,256,235.7z M256,347.3   c-21.7,0-41.4-8.6-55.9-22.6c13.5,10.2,30.3,16.2,48.5,16.2c44.5,0,80.5-36.1,80.5-80.5c0-22.8-9.5-43.3-24.6-57.9   c19.5,14.7,32,38,32,64.3C336.5,311.2,300.5,347.3,256,347.3z" id="XMLID_32_"/></g></svg>